<?xml version="1.0" standalone="no"?>
<!DOCTYPE svg PUBLIC "-//W3C//DTD SVG 20010904//EN"
 "http://www.w3.org/TR/2001/REC-SVG-20010904/DTD/svg10.dtd">
<svg version="1.0" xmlns="http://www.w3.org/2000/svg"
 width="260.000000pt" height="260.000000pt" viewBox="0 0 260.000000 260.000000"
 preserveAspectRatio="xMidYMid meet">
<metadata>
Created by potrace 1.11, written by Peter Selinger 2001-2013
</metadata>
<g transform="translate(0.000000,260.000000) scale(0.100000,-0.100000)"
fill="#000000" stroke="none">
<path d="M0 1300 l0 -1300 1300 0 1300 0 0 1300 0 1300 -1300 0 -1300 0 0
-1300z m1158 956 c-3 -18 -11 -21 -53 -24 l-50 -2 38 36 c32 29 41 33 53 23 8
-7 14 -22 12 -33z m178 -13 c-10 -10 -19 5 -10 18 6 11 8 11 12 0 2 -7 1 -15
-2 -18z m-400 -52 c-10 -16 -36 -13 -36 3 0 17 21 27 34 16 4 -5 5 -13 2 -19z
m490 5 c-7 -27 18 -57 27 -34 3 7 6 4 6 -8 1 -12 -5 -21 -14 -21 -8 0 -15 4
-15 8 0 4 -17 -2 -37 -12 -50 -26 -57 -24 -76 16 -28 58 -20 78 21 56 11 -6
28 -4 47 4 43 19 48 18 41 -9z m280 13 c10 -17 -13 -36 -27 -22 -12 12 -4 33
11 33 5 0 12 -5 16 -11z m-658 -40 c2 -16 -8 -36 -27 -58 -26 -29 -33 -32 -46
-21 -22 18 -19 34 17 74 35 40 52 42 56 5z m223 -12 c-8 -8 -11 -5 -11 9 0 27
14 41 18 19 2 -9 -1 -22 -7 -28z m329 8 c6 -15 17 -25 30 -25 22 0 36 -22 25
-40 -5 -8 -14 -6 -32 5 -13 9 -31 14 -40 11 -10 -4 -18 4 -26 24 -6 16 -16 30
-22 31 -13 1 26 17 43 18 7 1 17 -10 22 -24z m-730 -85 c-12 -23 -30 -27 -30
-7 0 17 10 27 27 27 11 0 11 -5 3 -20z m925 -1 c10 -15 -15 -69 -31 -69 -17 0
-57 57 -49 70 8 13 72 13 80 -1z m135 -2 c0 -19 -10 -27 -26 -20 -21 8 -17 33
6 33 11 0 20 -6 20 -13z m-300 -42 c10 -12 10 -15 -3 -15 -8 0 -20 7 -27 15
-10 12 -10 15 3 15 8 0 20 -7 27 -15z m-790 -16 c0 -5 11 -15 25 -21 14 -6 25
-19 25 -30 0 -24 -18 -23 -45 5 -13 12 -31 28 -40 36 -13 10 -14 15 -4 21 14
9 39 2 39 -11z m1000 -39 c0 -10 5 -22 10 -25 6 -4 7 -11 4 -17 -10 -16 -34
20 -34 50 0 13 4 20 10 17 6 -3 10 -15 10 -25z m135 0 c3 -5 1 -10 -4 -10 -6
0 -11 5 -11 10 0 6 2 10 4 10 3 0 8 -4 11 -10z m-1249 -11 c3 -6 0 -17 -7 -25
-18 -17 -44 -2 -36 20 7 18 33 21 43 5z m1230 -86 c5 -36 4 -43 -10 -43 -13 0
-16 11 -16 52 0 61 15 55 26 -9z m-1286 22 c9 -11 17 -12 30 -5 28 15 30 13
30 -24 0 -30 -3 -34 -22 -29 -42 9 -88 34 -88 47 0 28 30 35 50 11z m-10 -70
c0 -10 -10 -14 -35 -13 -39 1 -35 14 5 21 14 2 26 5 28 6 1 0 2 -6 2 -14z
m1380 -6 c6 -11 8 -34 5 -51 -5 -21 -4 -28 4 -24 6 4 11 14 11 22 0 17 12 18
28 2 11 -11 18 -68 8 -68 -2 0 -12 -3 -21 -6 -10 -4 -15 -2 -13 7 2 9 -8 15
-29 17 -37 4 -39 11 -18 51 13 26 13 30 0 41 -19 16 -19 30 0 30 8 0 19 -9 25
-21z m-1456 -44 c7 -20 -28 -55 -56 -55 -19 0 -20 2 -6 18 8 9 18 25 21 35 8
21 33 22 41 2z m-34 -105 c0 -5 -9 -10 -20 -10 -11 0 -20 -4 -20 -10 0 -5 -4
-10 -9 -10 -5 0 -7 9 -4 20 5 21 53 30 53 10z m1645 1 c3 -5 1 -12 -4 -15 -13
-8 -42 4 -35 15 7 12 31 12 39 0z m-90 -21 c-3 -5 -10 -10 -16 -10 -5 0 -9 5
-9 10 0 6 7 10 16 10 8 0 12 -4 9 -10z m-1587 -66 c-3 -13 -11 -18 -28 -16
-34 4 -36 9 -9 31 26 21 43 14 37 -15z m1626 5 c-3 -5 -10 -7 -15 -3 -5 3 -7
10 -3 15 3 5 10 7 15 3 5 -3 7 -10 3 -15z m46 -49 c0 -5 -6 -10 -14 -10 -8 0
-18 5 -21 10 -3 6 3 10 14 10 12 0 21 -4 21 -10z m-1711 -31 c15 -43 -1 -71
-37 -67 -22 2 -28 9 -30 36 -6 63 47 87 67 31z m1649 -22 c8 -10 4 -20 -19
-41 -37 -35 -45 -29 -25 18 16 38 27 44 44 23z m-1698 -83 c0 -8 -4 -12 -10
-9 -5 3 -10 10 -10 16 0 5 5 9 10 9 6 0 10 -7 10 -16z m58 -66 c3 -14 -3 -18
-27 -18 -34 0 -34 0 -25 25 8 21 48 16 52 -7z m1812 1 c15 -26 6 -49 -18 -49
-31 0 -46 24 -30 49 16 27 34 27 48 0z m-1924 -223 c6 -25 -1 -46 -15 -46 -13
0 -51 41 -51 55 0 10 10 15 30 15 23 0 31 -5 36 -24z m1789 14 c3 -5 3 -10 -2
-10 -4 0 -18 -3 -30 -6 -13 -4 -23 -2 -23 4 0 9 15 16 42 21 4 0 10 -3 13 -9z
m-1721 -76 c22 -22 20 -44 -4 -44 -23 0 -35 22 -26 45 7 19 11 19 30 -1z
m1735 -18 c9 -10 8 -16 -4 -26 -8 -7 -15 -21 -15 -31 0 -11 -11 -24 -24 -30
-16 -8 -22 -17 -19 -30 4 -13 0 -19 -12 -19 -15 0 -16 6 -10 38 5 20 8 47 9
60 1 13 11 28 26 36 33 18 36 18 49 2z m-1629 -26 c0 -5 -5 -10 -11 -10 -5 0
-7 5 -4 10 3 6 8 10 11 10 2 0 4 -4 4 -10z m-33 -102 c-4 -14 0 -22 14 -25 23
-6 24 -12 3 -41 -15 -21 -14 -24 8 -42 22 -18 22 -19 4 -26 -29 -11 -46 21
-46 88 0 43 -4 60 -15 64 -8 4 -12 10 -9 15 10 17 46 -11 41 -33z m1556 -25
c9 -3 17 -9 17 -14 0 -11 -60 -42 -61 -32 0 5 -3 21 -5 37 -4 24 -2 27 13 21
10 -4 26 -10 36 -12z m-1463 -64 c0 -15 -5 -19 -16 -15 -9 3 -18 6 -20 6 -2 0
-4 11 -4 25 0 23 2 24 20 15 11 -6 20 -20 20 -31z m1440 -35 c0 -14 -74 -99
-100 -115 -32 -20 -36 -18 -38 25 -2 36 15 58 39 51 19 -6 35 10 19 20 -20 12
1 25 41 25 21 0 39 -3 39 -6z m-1382 -24 c20 -12 30 -25 26 -32 -5 -8 -11 -6
-19 5 -17 24 -55 22 -55 -2 0 -27 39 -54 57 -39 9 7 13 7 13 0 0 -15 -36 -25
-61 -17 -19 6 -27 19 -43 72 -6 17 -2 22 16 26 13 2 25 5 28 6 3 0 20 -8 38
-19z m70 -110 c5 -35 18 -46 38 -30 14 13 16 11 12 -15 -3 -28 -1 -30 30 -27
19 2 32 -1 32 -8 0 -7 8 -9 20 -5 25 8 28 -21 5 -51 -14 -19 -15 -19 -21 4 -3
12 -13 22 -21 22 -25 0 -73 30 -73 45 0 9 -9 15 -24 15 -32 0 -50 24 -42 56 9
33 40 29 44 -6z m1122 -15 c0 -8 9 -15 21 -15 11 0 17 -4 14 -10 -3 -5 -17
-10 -31 -10 -19 0 -24 5 -24 25 0 14 5 25 10 25 6 0 10 -7 10 -15z m-38 -77
c-15 -15 -26 -4 -18 18 5 13 9 15 18 6 9 -9 9 -15 0 -24z m-70 -40 c-15 -15
-26 -4 -18 18 5 13 9 15 18 6 9 -9 9 -15 0 -24z m-224 -10 c4 -21 -14 -23 -55
-7 -22 8 -24 12 -13 20 23 14 64 6 68 -13z m-543 -28 c-8 -13 -41 -13 -66 0
-44 24 -3 46 44 23 15 -8 25 -18 22 -23z m147 -15 c2 -31 -1 -40 -14 -43 -12
-2 -18 3 -18 16 0 11 -7 26 -16 33 -15 12 -14 15 7 31 27 23 37 15 41 -37z
m-86 -6 c8 -14 -31 -53 -45 -45 -12 8 -15 58 -5 69 8 7 40 -8 50 -24z m562 3
c2 -7 -3 -12 -12 -12 -9 0 -16 7 -16 16 0 17 22 14 28 -4z m210 -4 c-3 -26
-36 -37 -49 -17 -10 17 8 39 33 39 14 0 19 -6 16 -22z m-440 -10 c18 -18 14
-45 -7 -51 -18 -4 -41 26 -41 53 0 14 34 12 48 -2z m182 -14 c0 -8 -4 -14 -10
-14 -5 0 -10 9 -10 21 0 11 5 17 10 14 6 -3 10 -13 10 -21z m-62 -26 c-3 -7
-15 -14 -29 -16 -23 -2 -23 -2 -5 13 24 18 39 20 34 3z m-178 -19 c0 -24 -23
-21 -28 4 -2 10 3 17 12 17 10 0 16 -9 16 -21z m250 -4 c0 -8 -4 -15 -10 -15
-5 0 -7 7 -4 15 4 8 8 15 10 15 2 0 4 -7 4 -15z m-299 -41 c13 -8 11 -42 -3
-47 -7 -2 -21 0 -30 5 -11 5 -25 5 -37 -2 -24 -12 -42 11 -33 43 4 17 11 19
49 13 25 -3 49 -8 54 -12z m154 -13 c0 -34 -30 -51 -52 -29 -16 16 -16 19 2
38 24 27 50 22 50 -9z"/>
</g>
</svg>
